<svg width="124" height="40" viewBox="0 0 124 40" fill="none" xmlns="http://www.w3.org/2000/svg">
<path d="M29.9 10.365L16.366 2.55099C16.0791 2.38528 15.7537 2.29803 15.4225 2.29803C15.0912 2.29803 14.7658 2.38528 14.479 2.55099L0.94397 10.365C0.657162 10.5306 0.419016 10.7688 0.253479 11.0556C0.0879421 11.3424 0.000857977 11.6678 0.000976684 11.999V27.627C0.000857977 27.9582 0.0879421 28.2835 0.253479 28.5704C0.419016 28.8572 0.657162 29.0954 0.94397 29.261L14.479 37.075C14.7658 37.2407 15.0912 37.328 15.4225 37.328C15.7537 37.328 16.0791 37.2407 16.366 37.075L29.9 29.258C30.1868 29.0924 30.4249 28.8542 30.5905 28.5674C30.756 28.2805 30.8431 27.9552 30.843 27.624V11.999C30.843 11.6678 30.7559 11.3425 30.5903 11.0557C30.4248 10.7689 30.1867 10.5307 29.9 10.365ZM28.275 14.989C28.275 15.2726 28.2004 15.5513 28.0587 15.797C27.9171 16.0427 27.7134 16.2469 27.468 16.389L17.059 22.399V25.11L25.854 20.032C26.0993 19.8893 26.3781 19.8139 26.6619 19.8135C26.9458 19.8132 27.2247 19.8878 27.4705 20.0299C27.7162 20.172 27.92 20.3765 28.0613 20.6227C28.2026 20.869 28.2763 21.1481 28.275 21.432V21.506C28.275 21.7896 28.2004 22.0682 28.0587 22.314C27.9171 22.5597 27.7134 22.7638 27.468 22.906L17.059 28.915V32.758C17.0589 33.0416 16.9844 33.3202 16.8427 33.5659C16.7011 33.8117 16.4974 34.0158 16.252 34.158L16.228 34.172C15.9827 34.3135 15.7046 34.3879 15.4215 34.3879C15.1384 34.3879 14.8602 34.3135 14.615 34.172L14.591 34.158C14.3456 34.0158 14.1418 33.8117 14.0002 33.5659C13.8585 33.3202 13.784 33.0416 13.784 32.758V9.73599L11.452 11.082V21.445C11.4573 21.6603 11.4196 21.8744 11.3409 22.0749C11.2622 22.2753 11.1442 22.458 10.9939 22.6122C10.8435 22.7663 10.6638 22.8888 10.4654 22.9724C10.267 23.0561 10.0538 23.0992 9.83847 23.0992C9.62314 23.0992 9.40997 23.0561 9.21155 22.9724C9.01312 22.8888 8.83343 22.7663 8.68307 22.6122C8.53272 22.458 8.41474 22.2753 8.33606 22.0749C8.25738 21.8744 8.21962 21.6603 8.22498 21.445V12.945L5.84497 14.319V24.682C5.84496 24.9656 5.77039 25.2442 5.62875 25.49C5.48712 25.7357 5.28338 25.9398 5.03796 26.082L5.00598 26.1C4.76289 26.2412 4.48708 26.3163 4.20596 26.318C3.77754 26.3175 3.36682 26.147 3.06387 25.8441C2.76093 25.5411 2.5905 25.1304 2.58997 24.702V13.333C2.58998 13.0494 2.66455 12.7707 2.80618 12.525C2.94782 12.2793 3.15156 12.0751 3.39697 11.933L14.624 5.45099C14.8703 5.30784 15.1501 5.23245 15.435 5.23245C15.7199 5.23245 15.9997 5.30784 16.246 5.45099L16.266 5.46298C16.5091 5.60558 16.7109 5.80922 16.8512 6.05371C16.9915 6.29821 17.0655 6.5751 17.066 6.85699L17.058 18.593L25.858 13.51C26.1033 13.3673 26.3821 13.2919 26.6659 13.2915C26.9498 13.2912 27.2287 13.3658 27.4745 13.5079C27.7202 13.65 27.924 13.8546 28.0653 14.1008C28.2066 14.347 28.2803 14.6261 28.279 14.91L28.275 14.989Z" fill="#82D264"/>
<path d="M37.3931 25.524V14.604C37.3875 14.5661 37.3909 14.5274 37.403 14.491C37.415 14.4546 37.4355 14.4216 37.4626 14.3945C37.4897 14.3674 37.5227 14.347 37.5591 14.3349C37.5955 14.3228 37.6342 14.3195 37.6721 14.325H39.4271C39.4929 14.3228 39.558 14.3384 39.6158 14.3701C39.6735 14.4017 39.7216 14.4483 39.7551 14.505L42.1331 18.342C42.1402 18.3558 42.1508 18.3676 42.1637 18.3761C42.1767 18.3847 42.1916 18.3898 42.2071 18.391C42.2341 18.391 42.2531 18.375 42.2641 18.342L44.6741 14.505C44.7075 14.4483 44.7557 14.4016 44.8134 14.3699C44.8711 14.3383 44.9363 14.3227 45.0021 14.325H46.7561C46.794 14.3195 46.8327 14.3228 46.8691 14.3349C46.9055 14.347 46.9385 14.3674 46.9656 14.3945C46.9927 14.4216 47.0131 14.4546 47.0252 14.491C47.0372 14.5274 47.0406 14.5661 47.0351 14.604V25.525C47.0406 25.5629 47.0372 25.6016 47.0252 25.638C47.0131 25.6744 46.9927 25.7074 46.9656 25.7345C46.9385 25.7616 46.9055 25.782 46.8691 25.7941C46.8327 25.8062 46.794 25.8096 46.7561 25.804H45.0021C44.9642 25.8096 44.9254 25.8062 44.8891 25.7941C44.8527 25.782 44.8197 25.7616 44.7926 25.7345C44.7655 25.7074 44.7451 25.6744 44.733 25.638C44.7209 25.6016 44.7176 25.5629 44.7231 25.525V18.425C44.7231 18.381 44.7091 18.354 44.6821 18.343C44.6551 18.332 44.6301 18.349 44.6081 18.392L42.9521 21.098C42.9187 21.1547 42.8706 21.2014 42.8128 21.2331C42.7551 21.2648 42.6899 21.2803 42.6241 21.278H41.7881C41.7223 21.2803 41.6571 21.2648 41.5993 21.2331C41.5416 21.2014 41.4935 21.1547 41.4601 21.098L39.8201 18.392C39.7981 18.348 39.7731 18.332 39.7461 18.343C39.7191 18.354 39.7051 18.381 39.7051 18.425V25.525C39.7106 25.5629 39.7072 25.6016 39.6952 25.638C39.6831 25.6744 39.6627 25.7074 39.6356 25.7345C39.6085 25.7616 39.5755 25.782 39.5391 25.7941C39.5027 25.8062 39.464 25.8096 39.4261 25.804H37.6711C37.6332 25.8094 37.5945 25.8059 37.5581 25.7937C37.5218 25.7815 37.4888 25.761 37.4618 25.7338C37.4348 25.7066 37.4145 25.6734 37.4026 25.637C37.3907 25.6006 37.3874 25.5619 37.3931 25.524Z" fill="#1E1E24"/>
<path d="M48.885 16.186C48.6322 15.9176 48.4915 15.5627 48.4915 15.194C48.4915 14.8253 48.6322 14.4705 48.885 14.202C49.1672 13.9551 49.529 13.8184 49.904 13.8169C50.2789 13.8155 50.6419 13.9494 50.926 14.194C51.1739 14.4681 51.3111 14.8245 51.3111 15.194C51.3111 15.5635 51.1739 15.9199 50.926 16.194C50.6419 16.4387 50.2789 16.5725 49.904 16.5711C49.529 16.5696 49.1672 16.4329 48.885 16.186ZM48.754 25.524V17.653C48.7485 17.6151 48.7519 17.5764 48.7639 17.54C48.776 17.5036 48.7964 17.4706 48.8235 17.4435C48.8506 17.4164 48.8836 17.396 48.92 17.3839C48.9564 17.3719 48.9951 17.3685 49.033 17.374H50.788C50.8259 17.3685 50.8646 17.3719 50.901 17.3839C50.9374 17.396 50.9705 17.4164 50.9976 17.4435C51.0247 17.4706 51.045 17.5036 51.0571 17.54C51.0691 17.5764 51.0726 17.6151 51.067 17.653V25.524C51.0726 25.5619 51.0691 25.6006 51.0571 25.637C51.045 25.6734 51.0247 25.7064 50.9976 25.7335C50.9705 25.7606 50.9374 25.781 50.901 25.7931C50.8646 25.8052 50.8259 25.8085 50.788 25.803H49.033C48.9951 25.8087 48.9564 25.8054 48.92 25.7935C48.8836 25.7816 48.8504 25.7613 48.8232 25.7343C48.796 25.7073 48.7755 25.6743 48.7633 25.638C48.7511 25.6016 48.7476 25.5629 48.753 25.525L48.754 25.524Z" fill="#1E1E24"/>
<path d="M59.2461 18.047C59.5202 18.3374 59.7325 18.6804 59.87 19.0554C60.0075 19.4303 60.0674 19.8292 60.046 20.228V25.528C60.0516 25.5659 60.0482 25.6046 60.0362 25.641C60.0241 25.6774 60.0037 25.7105 59.9766 25.7376C59.9495 25.7647 59.9165 25.785 59.8801 25.7971C59.8437 25.8091 59.805 25.8126 59.7671 25.807H58.0131C57.9752 25.8126 57.9364 25.8091 57.9001 25.7971C57.8637 25.785 57.8307 25.7647 57.8036 25.7376C57.7765 25.7105 57.756 25.6774 57.744 25.641C57.7319 25.6046 57.7286 25.5659 57.7341 25.528V20.707C57.7511 20.319 57.6223 19.9388 57.3731 19.641C57.2523 19.5051 57.1027 19.3978 56.9353 19.3269C56.7678 19.2559 56.5867 19.2232 56.4051 19.231C56.2212 19.2243 56.038 19.2574 55.8682 19.3282C55.6983 19.399 55.5458 19.5057 55.421 19.641C55.1622 19.9341 55.0271 20.3162 55.0441 20.707V25.528C55.0494 25.5659 55.0459 25.6045 55.0337 25.6408C55.0216 25.677 55.0012 25.71 54.9742 25.7371C54.9471 25.7641 54.9141 25.7845 54.8778 25.7966C54.8416 25.8088 54.803 25.8123 54.7651 25.807H53.0111C52.9732 25.8126 52.9345 25.8091 52.8981 25.7971C52.8617 25.785 52.8286 25.7647 52.8015 25.7376C52.7744 25.7105 52.754 25.6774 52.742 25.641C52.7299 25.6046 52.7265 25.5659 52.7321 25.528V17.657C52.7265 17.6191 52.7299 17.5804 52.742 17.544C52.754 17.5076 52.7744 17.4746 52.8015 17.4475C52.8286 17.4204 52.8617 17.3999 52.8981 17.3879C52.9345 17.3758 52.9732 17.3725 53.0111 17.378H54.7651C54.803 17.3727 54.8416 17.3762 54.8778 17.3884C54.9141 17.4005 54.9471 17.4209 54.9742 17.4479C55.0012 17.475 55.0216 17.508 55.0337 17.5443C55.0459 17.5805 55.0494 17.6191 55.0441 17.657V18.116C55.0441 18.16 55.0551 18.187 55.0771 18.198C55.0991 18.209 55.1201 18.198 55.1431 18.165C55.3717 17.8594 55.6727 17.6155 56.019 17.4552C56.3654 17.295 56.7462 17.2234 57.1271 17.247C57.5162 17.2291 57.9048 17.2908 58.2691 17.4284C58.6335 17.5659 58.9659 17.7764 59.2461 18.047Z" fill="#1E1E24"/>
<path d="M67.212 23.229C67.2367 23.1952 67.2687 23.1674 67.3055 23.1475C67.3423 23.1276 67.3831 23.1162 67.4249 23.114C67.4589 23.1148 67.4924 23.1225 67.5234 23.1366C67.5543 23.1507 67.582 23.1709 67.6049 23.196L68.54 24.096C68.5693 24.1209 68.5933 24.1514 68.6105 24.1858C68.6277 24.2201 68.6377 24.2577 68.64 24.296C68.6423 24.3684 68.619 24.4392 68.574 24.496C68.202 24.9531 67.727 25.3157 67.1879 25.554C66.608 25.8141 65.9786 25.9454 65.343 25.939C64.4463 25.9731 63.5647 25.7012 62.843 25.168C62.1698 24.6357 61.6985 23.8896 61.507 23.053C61.3726 22.5559 61.3053 22.043 61.307 21.528C61.2958 20.9868 61.3564 20.4464 61.487 19.921C61.6883 19.1377 62.1548 18.4483 62.807 17.97C63.4886 17.4715 64.3158 17.2121 65.16 17.232C65.6274 17.2081 66.0948 17.2801 66.5333 17.4437C66.9719 17.6072 67.3723 17.8588 67.71 18.183C68.3887 18.923 68.8164 19.8586 68.932 20.856C68.9753 21.2167 69.0086 21.6167 69.0319 22.056C69.0375 22.0939 69.0341 22.1327 69.022 22.169C69.01 22.2054 68.9896 22.2384 68.9625 22.2655C68.9354 22.2926 68.9024 22.313 68.866 22.3251C68.8296 22.3372 68.7909 22.3406 68.7529 22.335H63.7189C63.7053 22.3328 63.6913 22.3338 63.6782 22.338C63.665 22.3423 63.653 22.3496 63.6433 22.3593C63.6335 22.3691 63.6262 22.3811 63.622 22.3942C63.6177 22.4074 63.6167 22.4214 63.619 22.435C63.6385 22.6081 63.677 22.7784 63.734 22.943C63.8394 23.2776 64.0721 23.5574 64.382 23.722C64.7428 23.9118 65.1465 24.0051 65.554 23.993C65.8695 23.9954 66.1817 23.9282 66.4683 23.7961C66.7549 23.664 67.0088 23.4704 67.212 23.229ZM64.252 19.482C64.0132 19.6567 63.8422 19.9086 63.768 20.195C63.713 20.403 63.68 20.539 63.668 20.605C63.656 20.671 63.684 20.705 63.75 20.705H66.5369C66.5919 20.705 66.619 20.683 66.619 20.639C66.6176 20.5107 66.5957 20.3834 66.554 20.262C66.4679 19.9636 66.2902 19.6999 66.046 19.508C65.7807 19.3296 65.4693 19.2322 65.1497 19.2278C64.8301 19.2234 64.5161 19.312 64.246 19.483L64.252 19.482Z" fill="#1E1E24"/>
<path d="M77.9572 16.309H72.6931C72.6795 16.3067 72.6655 16.3078 72.6524 16.312C72.6392 16.3162 72.6272 16.3235 72.6175 16.3333C72.6077 16.3431 72.6005 16.3551 72.5962 16.3682C72.592 16.3814 72.5909 16.3954 72.5932 16.409V18.918C72.5909 18.9316 72.592 18.9456 72.5962 18.9588C72.6005 18.9719 72.6077 18.9839 72.6175 18.9937C72.6272 19.0035 72.6392 19.0108 72.6524 19.015C72.6655 19.0192 72.6795 19.0203 72.6931 19.018H76.1201C76.158 19.0127 76.1967 19.0162 76.2329 19.0283C76.2692 19.0405 76.3022 19.0609 76.3293 19.088C76.3563 19.115 76.3767 19.148 76.3888 19.1842C76.401 19.2205 76.4045 19.2591 76.3992 19.297V20.723C76.4047 20.7609 76.4012 20.7996 76.3892 20.836C76.3771 20.8724 76.3568 20.9054 76.3297 20.9325C76.3026 20.9596 76.2696 20.98 76.2332 20.9921C76.1968 21.0042 76.1581 21.0076 76.1201 21.002H72.6931C72.6795 20.9998 72.6655 21.0008 72.6524 21.005C72.6392 21.0092 72.6272 21.0166 72.6175 21.0263C72.6077 21.0361 72.6005 21.0481 72.5962 21.0612C72.592 21.0744 72.5909 21.0883 72.5932 21.102V25.529C72.5987 25.5669 72.5953 25.6056 72.5833 25.642C72.5712 25.6784 72.5508 25.7114 72.5237 25.7385C72.4966 25.7656 72.4635 25.786 72.4272 25.7981C72.3908 25.8102 72.352 25.8136 72.3141 25.808H70.5591C70.5212 25.8136 70.4826 25.8102 70.4462 25.7981C70.4098 25.786 70.3767 25.7656 70.3496 25.7385C70.3225 25.7114 70.3021 25.6784 70.2901 25.642C70.278 25.6056 70.2746 25.5669 70.2802 25.529V14.604C70.2746 14.5661 70.278 14.5274 70.2901 14.491C70.3021 14.4546 70.3225 14.4216 70.3496 14.3945C70.3767 14.3674 70.4098 14.347 70.4462 14.3349C70.4826 14.3228 70.5212 14.3195 70.5591 14.325H77.9591C77.9971 14.3195 78.0358 14.3228 78.0722 14.3349C78.1086 14.347 78.1416 14.3674 78.1687 14.3945C78.1958 14.4216 78.2162 14.4546 78.2283 14.491C78.2404 14.5274 78.2437 14.5661 78.2382 14.604V16.03C78.2438 16.0681 78.2403 16.107 78.2282 16.1436C78.216 16.1801 78.1955 16.2133 78.1681 16.2405C78.1408 16.2676 78.1075 16.288 78.0708 16.2999C78.0342 16.3118 77.9953 16.3149 77.9572 16.309Z" fill="#1E1E24"/>
<path d="M83.5972 17.613C84.1123 17.8276 84.5611 18.1755 84.8972 18.621C85.204 19.0332 85.3678 19.5342 85.3642 20.048V25.5249C85.3697 25.5629 85.3663 25.6016 85.3543 25.638C85.3422 25.6744 85.3218 25.7074 85.2947 25.7345C85.2676 25.7616 85.2345 25.782 85.1981 25.7941C85.1618 25.8061 85.1231 25.8095 85.0852 25.804H83.3302C83.2923 25.8095 83.2536 25.8061 83.2172 25.7941C83.1808 25.782 83.1477 25.7616 83.1206 25.7345C83.0935 25.7074 83.0731 25.6744 83.0611 25.638C83.049 25.6016 83.0456 25.5629 83.0512 25.5249V25.131C83.0512 25.088 83.0402 25.063 83.0182 25.057C82.9962 25.051 82.9692 25.0649 82.9362 25.0979C82.6441 25.3909 82.2922 25.6172 81.9046 25.7615C81.5169 25.9058 81.1027 25.9646 80.6902 25.9339C79.9607 25.9694 79.2416 25.7491 78.6572 25.311C78.3948 25.0858 78.1884 24.8025 78.0547 24.4836C77.921 24.1647 77.8637 23.819 77.8872 23.474C77.8684 23.1006 77.9388 22.7281 78.0927 22.3874C78.2466 22.0467 78.4796 21.7476 78.7722 21.515C79.5114 21.0048 80.4008 20.7582 81.2971 20.815H82.9531C82.9668 20.8172 82.9808 20.8162 82.9939 20.8119C83.0071 20.8077 83.0191 20.8004 83.0288 20.7906C83.0386 20.7809 83.046 20.7689 83.0502 20.7557C83.0544 20.7426 83.0555 20.7286 83.0532 20.715V20.375C83.0618 20.2183 83.0362 20.0617 82.9782 19.9159C82.9201 19.7702 82.8311 19.6389 82.7172 19.531C82.4407 19.3127 82.0926 19.2057 81.7412 19.231C81.4614 19.2209 81.1832 19.277 80.9292 19.3949C80.7319 19.4878 80.5768 19.6517 80.4951 19.854C80.4733 19.9218 80.4288 19.9799 80.369 20.0187C80.3093 20.0575 80.2381 20.0746 80.1673 20.067L78.3472 19.837C78.2734 19.8313 78.2026 19.8057 78.1422 19.763C78.1184 19.7454 78.1003 19.7213 78.09 19.6936C78.0797 19.6659 78.0777 19.6358 78.0842 19.607C78.1414 19.1531 78.3392 18.7285 78.6502 18.393C79.0023 18.0127 79.4411 17.7232 79.9292 17.549C80.4936 17.3419 81.0911 17.2402 81.6922 17.2489C82.3456 17.2357 82.9946 17.3597 83.5972 17.613ZM82.5642 23.836C82.7185 23.7266 82.8439 23.5813 82.9296 23.4127C83.0153 23.2441 83.0588 23.0571 83.0562 22.868V22.294C83.0584 22.2804 83.0575 22.2664 83.0532 22.2532C83.049 22.2401 83.0417 22.2281 83.0319 22.2183C83.0221 22.2085 83.0101 22.2012 82.997 22.197C82.9838 22.1928 82.9698 22.1917 82.9562 22.194H81.7923C81.3855 22.1726 80.9811 22.2695 80.6282 22.4729C80.4939 22.5547 80.3837 22.6706 80.3089 22.8089C80.234 22.9472 80.1971 23.1028 80.2022 23.26C80.196 23.3937 80.2218 23.5269 80.2775 23.6487C80.3331 23.7704 80.4171 23.8771 80.5222 23.9599C80.7663 24.1393 81.0647 24.2291 81.3672 24.214C81.7974 24.2265 82.2192 24.0933 82.5642 23.836Z" fill="#1E1E24"/>
<path d="M88.2381 25.2749C87.5991 24.8388 87.1187 24.2073 86.8691 23.475C86.6713 22.8495 86.577 22.1959 86.5901 21.54C86.577 20.8955 86.6714 20.2535 86.8691 19.64C87.1135 18.9191 87.5928 18.3012 88.2301 17.885C88.9087 17.4487 89.7026 17.2258 90.5091 17.245C91.3241 17.2292 92.1251 17.4576 92.8091 17.901C93.4271 18.284 93.8936 18.8691 94.1291 19.557C94.1968 19.7192 94.2409 19.8903 94.2601 20.065V20.0979C94.2601 20.2399 94.1781 20.327 94.0141 20.36L92.2921 20.622L92.2101 20.638C92.1818 20.6406 92.1532 20.6374 92.1262 20.6286C92.0992 20.6199 92.0742 20.6057 92.0528 20.587C92.0314 20.5683 92.014 20.5454 92.0017 20.5198C91.9894 20.4942 91.9823 20.4664 91.9811 20.438L91.9321 20.208C91.8525 19.9198 91.6724 19.6697 91.4242 19.503C91.1499 19.3134 90.8224 19.2157 90.4891 19.224C90.1736 19.2137 89.8632 19.3055 89.6041 19.4859C89.361 19.6648 89.1828 19.9179 89.0962 20.207C88.9601 20.6418 88.8989 21.0966 88.9151 21.552C88.9 22.0061 88.9553 22.4598 89.0791 22.897C89.1626 23.2033 89.3438 23.4739 89.5951 23.668C89.8536 23.8581 90.1683 23.9563 90.4891 23.9469C90.8082 23.953 91.1211 23.8581 91.3832 23.6759C91.6375 23.4991 91.8251 23.2421 91.9161 22.946L91.9321 22.864C91.9554 22.8024 91.9952 22.7485 92.0471 22.708C92.0745 22.6801 92.1081 22.6589 92.145 22.646C92.1819 22.6332 92.2213 22.6291 92.2601 22.634L93.9811 22.896C94.056 22.91 94.1232 22.9509 94.1701 23.011C94.2097 23.0696 94.2244 23.1415 94.2112 23.211C94.1997 23.3396 94.1721 23.4662 94.1291 23.588C93.9103 24.3066 93.4347 24.9195 92.7931 25.31C92.1059 25.7326 91.3117 25.9488 90.5051 25.933C89.6998 25.9514 88.9084 25.7217 88.2381 25.2749Z" fill="#1E1E24"/>
<path d="M99.9829 19.228H98.507C98.4933 19.2257 98.4794 19.2268 98.4662 19.231C98.4531 19.2352 98.4411 19.2425 98.4313 19.2523C98.4215 19.2621 98.4142 19.274 98.4099 19.2872C98.4057 19.3004 98.4048 19.3144 98.407 19.328V22.722C98.3823 23.0065 98.4607 23.2905 98.628 23.522C98.7213 23.6137 98.8336 23.6839 98.9569 23.7278C99.0803 23.7717 99.2116 23.7881 99.3419 23.776H99.8009C99.8388 23.7707 99.8774 23.7742 99.9137 23.7863C99.95 23.7985 99.983 23.8189 100.01 23.8459C100.037 23.873 100.057 23.9059 100.07 23.9422C100.082 23.9785 100.085 24.0171 100.08 24.055V25.465C100.084 25.5035 100.079 25.5424 100.067 25.579C100.054 25.6157 100.034 25.6493 100.008 25.6777C99.9815 25.706 99.9494 25.7284 99.9137 25.7435C99.8781 25.7585 99.8396 25.7659 99.8009 25.765C99.3856 25.787 99.0857 25.798 98.901 25.798C98.1931 25.8469 97.4862 25.6873 96.8679 25.339C96.6221 25.133 96.4307 24.8698 96.3106 24.5725C96.1904 24.2752 96.1453 23.9529 96.179 23.634V19.334C96.1812 19.3203 96.1802 19.3064 96.1759 19.2932C96.1717 19.28 96.1645 19.2681 96.1547 19.2583C96.1449 19.2485 96.1329 19.2412 96.1198 19.237C96.1066 19.2328 96.0926 19.2317 96.079 19.234H95.2429C95.205 19.2395 95.1664 19.2361 95.13 19.2241C95.0937 19.212 95.0606 19.1916 95.0335 19.1645C95.0064 19.1374 94.986 19.1044 94.9739 19.068C94.9618 19.0316 94.9585 18.9929 94.964 18.955V17.655C94.9585 17.6171 94.9618 17.5784 94.9739 17.542C94.986 17.5056 95.0064 17.4726 95.0335 17.4455C95.0606 17.4184 95.0937 17.3979 95.13 17.3859C95.1664 17.3738 95.205 17.3705 95.2429 17.376H96.079C96.0926 17.3782 96.1066 17.3772 96.1198 17.373C96.1329 17.3687 96.1449 17.3615 96.1547 17.3517C96.1645 17.3419 96.1717 17.3299 96.1759 17.3168C96.1802 17.3036 96.1812 17.2896 96.179 17.276V15.423C96.1734 15.3851 96.1768 15.3464 96.1889 15.31C96.2009 15.2736 96.2213 15.2406 96.2484 15.2135C96.2755 15.1864 96.3086 15.166 96.345 15.1539C96.3814 15.1418 96.42 15.1384 96.4579 15.144H98.131C98.1689 15.1386 98.2074 15.1422 98.2437 15.1543C98.28 15.1665 98.3129 15.1869 98.34 15.2139C98.367 15.241 98.3874 15.2739 98.3996 15.3102C98.4117 15.3465 98.4153 15.3851 98.4099 15.423V17.276C98.4077 17.2896 98.4088 17.3036 98.413 17.3168C98.4172 17.3299 98.4246 17.3419 98.4344 17.3517C98.4441 17.3615 98.456 17.3687 98.4691 17.373C98.4823 17.3772 98.4963 17.3782 98.5099 17.376H99.986C100.024 17.3707 100.063 17.3742 100.099 17.3863C100.135 17.3985 100.168 17.4189 100.195 17.4459C100.222 17.473 100.243 17.5059 100.255 17.5422C100.267 17.5785 100.27 17.6171 100.265 17.655V18.955C100.269 18.9927 100.265 19.0309 100.252 19.0667C100.24 19.1024 100.219 19.1348 100.191 19.1612C100.164 19.1876 100.131 19.2074 100.095 19.219C100.059 19.2305 100.02 19.2336 99.9829 19.228Z" fill="#1E1E24"/>
<path d="M102.552 25.213C101.893 24.7288 101.419 24.0347 101.207 23.245C101.05 22.7018 100.973 22.1385 100.978 21.573C100.967 20.9843 101.05 20.3974 101.224 19.835C101.447 19.0669 101.924 18.3972 102.577 17.935C103.274 17.4615 104.104 17.2203 104.946 17.246C105.767 17.2243 106.573 17.4657 107.246 17.935C107.888 18.3982 108.358 19.0616 108.582 19.821C108.754 20.3785 108.837 20.9596 108.828 21.543C108.829 22.1019 108.758 22.6586 108.615 23.199C108.399 24 107.923 24.7066 107.262 25.208C106.586 25.703 105.764 25.9597 104.926 25.938C104.077 25.9608 103.244 25.7063 102.552 25.213ZM105.831 23.622C106.096 23.3816 106.284 23.0686 106.372 22.722C106.469 22.3474 106.513 21.9609 106.503 21.574C106.511 21.1819 106.467 20.7905 106.372 20.41C106.284 20.0722 106.095 19.7693 105.831 19.541C105.567 19.329 105.236 19.2183 104.897 19.229C104.564 19.2204 104.238 19.331 103.979 19.541C103.715 19.7691 103.526 20.0721 103.438 20.41C103.343 20.7905 103.299 21.1819 103.307 21.574C103.3 21.9608 103.344 22.3469 103.438 22.722C103.527 23.0702 103.718 23.3838 103.987 23.622C104.25 23.8435 104.586 23.9603 104.93 23.95C105.261 23.9573 105.583 23.8406 105.832 23.623L105.831 23.622Z" fill="#1E1E24"/>
<path d="M115.215 17.457C115.277 17.4865 115.327 17.5377 115.354 17.6011C115.381 17.6645 115.384 17.7356 115.362 17.801L115.05 19.523C115.039 19.6217 115.009 19.6817 114.96 19.703C114.882 19.7258 114.8 19.7258 114.722 19.703C114.567 19.6619 114.408 19.6397 114.247 19.637C114.121 19.6411 113.995 19.6522 113.87 19.67C113.496 19.6944 113.143 19.8482 112.87 20.105C112.733 20.2369 112.625 20.3966 112.555 20.5733C112.484 20.7501 112.452 20.9399 112.46 21.13V25.524C112.466 25.5619 112.462 25.6006 112.45 25.637C112.438 25.6734 112.418 25.7064 112.391 25.7335C112.364 25.7606 112.33 25.781 112.294 25.7931C112.258 25.8052 112.219 25.8085 112.181 25.803H110.427C110.389 25.8085 110.35 25.8052 110.314 25.7931C110.278 25.781 110.245 25.7606 110.218 25.7335C110.19 25.7064 110.17 25.6734 110.158 25.637C110.146 25.6006 110.143 25.5619 110.148 25.524V17.653C110.143 17.615 110.146 17.5764 110.158 17.54C110.17 17.5036 110.19 17.4705 110.218 17.4434C110.245 17.4163 110.278 17.396 110.314 17.3839C110.35 17.3719 110.389 17.3684 110.427 17.374H112.181C112.219 17.3684 112.258 17.3719 112.294 17.3839C112.33 17.396 112.364 17.4163 112.391 17.4434C112.418 17.4705 112.438 17.5036 112.45 17.54C112.462 17.5764 112.466 17.615 112.46 17.653V18.161C112.46 18.205 112.471 18.232 112.493 18.243C112.515 18.254 112.542 18.243 112.575 18.21C112.764 17.9125 113.026 17.6687 113.336 17.5022C113.646 17.3356 113.994 17.2518 114.346 17.259C114.648 17.2481 114.948 17.3164 115.215 17.457Z" fill="#1E1E24"/>
<path d="M116.395 28.788V27.443C116.395 27.257 116.428 27.164 116.495 27.164H116.595C117.092 27.1994 117.59 27.1122 118.046 26.91C118.215 26.7867 118.357 26.6312 118.465 26.4526C118.574 26.2739 118.646 26.0756 118.677 25.869C118.688 25.8489 118.693 25.8264 118.693 25.8035C118.693 25.7807 118.688 25.7582 118.677 25.738L116.037 17.687C116.024 17.6553 116.019 17.6211 116.021 17.587C116.02 17.5578 116.025 17.5287 116.037 17.5017C116.048 17.4747 116.065 17.4506 116.087 17.431C116.138 17.3906 116.202 17.3703 116.267 17.374H118.153C118.223 17.3712 118.293 17.3924 118.349 17.4343C118.406 17.4761 118.447 17.5359 118.465 17.604L119.809 22.49C119.82 22.534 119.842 22.555 119.875 22.555C119.908 22.555 119.93 22.533 119.941 22.49L121.22 17.62C121.229 17.5462 121.267 17.4791 121.326 17.433C121.384 17.387 121.458 17.3658 121.532 17.374H123.418C123.458 17.3704 123.499 17.3768 123.536 17.3924C123.573 17.4081 123.606 17.4327 123.631 17.464C123.653 17.4963 123.666 17.5336 123.668 17.5724C123.671 17.6111 123.664 17.6499 123.647 17.685L120.847 26.113C120.652 26.7485 120.371 27.3542 120.011 27.913C119.712 28.3229 119.292 28.6294 118.811 28.79C118.104 29.0028 117.367 29.097 116.63 29.069H116.515C116.433 29.066 116.395 28.973 116.395 28.788Z" fill="#1E1E24"/>
</svg>
